<svg width="514" height="487" viewBox="0 0 514 487" fill="none" xmlns="http://www.w3.org/2000/svg">
<path fill-rule="evenodd" clip-rule="evenodd" d="M99.46 51.558C47.782 79.915 4.679 103.924 3.675 104.912C2.671
    105.899 1.595 108.604 1.284 110.922L0.718 115.138L29.349 143.831L57.98 172.525L29.918 200.586C4.191 226.313 1.812
    228.98 1.321 232.643C0.887 235.881 1.232 237.154 3.143 239.353C4.439 240.846 18.1 248.991 33.5 257.452L61.5 272.835L62
    326.396L62.5 379.956L65 382.347C66.375 383.663 109.459 407.748 160.742 435.869C225.661 471.469 254.9 487 257 487C259.1 487
    288.339 471.469 353.258 435.869C404.541 407.748 447.625 383.663 449 382.347L451.5 379.956L452 326.396L452.5
    272.835L480.5 257.452C495.9 248.991 509.512 240.903 510.75 239.478C513.341 236.496 513.614 233.057 511.566 229.2C510.777
    227.715 497.956 214.357 483.074 199.515L456.016 172.529L484.649 143.834L513.282 115.138L512.716 110.922C512.405 108.604 
    511.329 105.904 510.325 104.924C506.94 101.617 442.586 66.808 438.892 66.285C435.92 65.865 434.724 66.28 432.107 68.637C427.652
    72.652 426.96 77.622 430.309 81.555C431.795 83.301 443.632 90.403 459.385 99C473.999 106.975 485.965 113.729 485.978 114.008C485.99
    114.288 475.697 124.812 463.104 137.396L440.208 160.276L357.854 115.063C312.559 90.197 275.172 69.534 274.771 69.146C274.37 68.759
    284.394 58.105 297.046 45.471L320.051 22.5L326.275 25.928C373.249 51.797 372.607 51.547 378.077 46.077C381.943 42.211 382.19 36.007
    378.61 32.689C374.78 29.14 320.705 0 317.949 0C316.572 0 314.332 0.736 312.973 1.636C311.613 2.535 298.462 15.245 283.75 29.879L257 
    56.486L230.25 29.879C215.537 15.245 202.387 2.535 201.027 1.636C199.668 0.736 197.399 0 195.987 0C194.478 0 154.679 21.258 99.46 
    51.558ZM217.351 45.851L240.185 68.701L235.843 71.215C233.454 72.598 196.014 93.202 152.642 117.003L73.783 160.278L50.642 137.031C37.914 
    124.245 27.95 113.589 28.5 113.352C29.05 113.114 66.175 92.715 111 68.019C155.825 43.323 192.954 23.091 193.508 23.059C194.063 23.027 
    204.792 33.283 217.351 45.851ZM401.383 49.583C397.914 51.295 396 54.632 396 58.97C396 63.118 401.137 68 405.5 68C409.459 68 414.481 64.204 
    415.408 60.511C416.417 56.491 413.591 51.145 409.568 49.464C405.291 47.677 405.246 47.677 401.383 49.583ZM339.254 127.617C383.939 152.157 420.621 
    172.34 420.769 172.469C421.28 172.916 258.329 262 257 262C256.265 262 219.027 241.892 174.247 217.315L92.83 172.631L96.165 170.859C97.999 169.885 
    134.6 149.745 177.5 126.105C220.4 102.464 256.064 83.094 256.754 83.061C257.443 83.027 294.568 103.078 339.254 127.617ZM157.023 230.657L240.171 
    276.313L217.344 299.157C204.789 311.72 194.089 322 193.567 322C192.778 322 33.638 234.978 29 232.01C27.803 231.244 32.15 226.393 50.492 208.025C63.137 
    195.361 73.572 185 73.679 185C73.787 185 111.291 205.545 157.023 230.657ZM463.462 207.962C476.083 220.592 486.189 231.144 485.921 231.413C484.913 232.42 
    322.654 321.277 321.112 321.666C320.055 321.933 311.638 314.195 296.664 299.193L273.829 276.313L356.664 230.731C402.224 205.661 439.729 185.116 440.008 
    185.075C440.288 185.034 450.842 195.333 463.462 207.962ZM140.712 316.378C171.359 333.179 193.999 345 195.528 345C196.96 345 199.114 344.503 200.316 343.895C201.517 
    343.287 214.762 330.577 229.75 315.651L257 288.514L284.25 315.651C299.238 330.577 312.483 343.287 313.684 343.895C314.886 344.503 317.04 345 318.472 345C320.516 345 
    412.168 295.796 428.75 285.797L432 283.837V326.802V369.767L350.319 414.633C305.394 439.31 268.28 459.646 267.844 459.825C267.408 460.003 266.927 436.276 266.776 
    407.097L266.5 354.044L263.75 351.295C259.912 347.458 254.088 347.458 250.25 351.295L247.5 354.044L247.224 407.097C247.073 436.276 246.592 460.003 246.156 459.825C245.72 
    459.646 208.606 439.31 163.681 414.633L82 369.767V326.802V283.837L85.25 285.797C87.037 286.875 111.995 300.636 140.712 316.378ZM252.42 316.145C249.094 317.759 246.711 
    322.647 247.417 326.41C249.418 337.076 264.582 337.076 266.583 326.41C268.024 318.73 259.63 312.646 252.42 316.145Z" fill="black"/>
</svg>
